<svg viewBox="0 0 652 652" style="enable-background:new 0 0 652 652;" xmlns="http://www.w3.org/2000/svg">
  <rect width="100%" height="100%" fill="#fff"/>
  <path d="M 169.08 293.647 C 165.834 277.576 154.876 266.133 134.91 265.97 L 134.017 265.97 C 111.291 266.133 94.41 277.171 85.481 293.647 C 80.693 302.413 78.176 312.721 78.176 323.759 C 78.176 344.942 90.352 358.335 105.854 362.068 C 108.856 362.799 111.94 363.123 115.024 363.123 C 118.759 363.123 122.087 362.799 125.17 362.068 C 131.744 360.527 136.777 357.361 140.754 352.734 L 140.754 361.176 C 140.754 361.257 140.754 361.418 140.835 361.5 C 140.998 361.825 141.322 362.068 141.729 362.068 L 155.12 362.068 C 155.282 362.068 155.445 361.988 155.607 361.906 C 155.851 361.744 156.013 361.581 156.094 361.257 L 165.347 315.318 C 165.428 314.993 165.347 314.668 165.184 314.425 C 165.022 314.181 164.697 314.019 164.373 314.019 L 130.446 314.019 C 129.959 314.019 129.553 314.345 129.471 314.83 L 126.956 327.25 C 126.956 327.331 126.956 327.331 126.956 327.411 C 126.956 327.574 126.956 327.655 127.037 327.818 C 127.2 328.141 127.525 328.385 127.93 328.385 L 144.975 328.385 C 141.322 338.125 132.8 346.728 119.327 346.728 C 105.691 346.728 97.169 337.232 97.169 321.081 C 97.169 310.529 100.659 300.708 106.747 293.566 C 112.671 286.586 121.112 282.203 131.096 282.203 C 140.511 282.203 146.03 286.342 149.683 293.566 C 150.656 295.433 151.467 297.38 152.117 299.411 C 152.36 299.896 152.847 300.14 153.334 299.978 L 168.593 296.082 C 168.675 296.082 168.755 296.001 168.918 296.001 C 169.242 295.838 169.486 295.433 169.405 295.027 L 169.08 293.647 Z M 206.415 266.944 C 206.415 266.376 205.929 265.97 205.441 265.97 L 189.939 265.97 C 189.451 265.97 189.046 266.295 188.965 266.782 L 183.609 293.647 L 170.136 360.85 C 170.054 361.013 170.136 361.257 170.216 361.418 C 170.38 361.825 170.785 362.068 171.191 361.988 L 186.693 361.988 C 186.855 361.988 187.098 361.906 187.179 361.825 C 187.423 361.744 187.585 361.5 187.667 361.257 L 201.222 293.566 L 206.497 267.026 C 206.415 267.026 206.415 267.026 206.415 266.944 Z M 254.789 293.647 C 251.787 292.916 248.702 292.51 245.618 292.592 C 241.56 292.592 237.988 292.916 234.58 293.647 C 228.005 295.108 222.486 298.111 216.723 303.387 C 208.282 311.26 204.629 321.324 204.629 334.229 C 204.629 347.621 212.583 358.66 226.3 362.068 C 229.304 362.799 232.387 363.205 235.471 363.123 C 239.531 363.123 243.183 362.799 246.51 362.068 C 253.084 360.606 258.603 357.604 264.366 352.329 C 272.807 344.455 276.46 334.392 276.46 321.487 C 276.46 308.094 268.425 297.056 254.789 293.647 Z M 252.598 341.453 C 248.945 346.079 243.913 348.757 237.014 348.757 C 228.735 348.757 223.298 342.265 223.298 331.632 C 223.298 324.327 225.003 318.646 228.491 314.263 C 232.145 309.637 237.176 306.958 244.076 306.958 C 252.354 306.958 257.792 313.451 257.792 324.084 C 257.792 331.388 256.088 337.07 252.598 341.453 Z M 334.573 303.469 C 332.22 299.004 326.863 295.351 320.695 293.647 C 318.178 292.916 315.581 292.592 312.903 292.592 C 309.899 292.592 306.815 292.916 303.893 293.647 C 293.99 296.245 288.229 303.306 288.229 313.451 C 288.229 322.541 294.397 327.818 302.676 331.632 C 310.629 335.284 314.769 337.718 314.769 341.696 C 314.769 346.566 310.549 348.757 305.761 348.757 C 299.104 348.757 294.316 344.78 292.287 338.125 C 292.206 337.882 291.962 337.638 291.718 337.557 C 291.476 337.476 291.15 337.476 290.906 337.557 L 277.839 342.752 C 277.433 342.914 277.19 343.238 277.19 343.644 C 277.19 343.726 277.19 343.726 277.19 343.807 C 279.463 352.734 286.362 359.715 295.29 362.068 C 298.05 362.799 300.891 363.205 303.649 363.205 C 306.977 363.205 310.306 362.88 313.552 362.068 C 324.265 359.553 331.407 352.329 331.407 339.423 C 331.407 329.927 324.102 325.301 316.799 322.054 C 312.01 319.864 304.623 317.834 304.623 313.127 C 304.623 309.231 307.707 307.039 311.523 307.039 C 315.175 307.039 319.314 308.662 321.83 312.234 C 321.992 312.477 322.318 312.64 322.641 312.64 C 322.805 312.64 323.048 312.558 323.129 312.477 L 334.005 304.848 L 334.086 304.766 C 334.655 304.442 334.817 303.955 334.573 303.469 Z M 378.483 293.647 C 375.967 292.916 373.369 292.592 370.691 292.592 C 367.444 292.592 364.442 292.998 361.681 293.647 C 351.78 296.245 346.017 303.306 346.017 313.451 C 346.017 322.541 352.186 327.818 360.464 331.632 C 368.499 335.284 372.557 337.718 372.557 341.696 C 372.557 346.566 368.338 348.757 363.549 348.757 C 356.893 348.757 352.104 344.78 350.076 338.044 C 349.832 337.557 349.264 337.313 348.777 337.557 L 335.791 342.752 C 335.385 342.914 335.142 343.238 335.142 343.644 C 335.142 343.726 335.142 343.726 335.142 343.807 C 337.414 352.653 344.312 359.633 353.241 361.988 C 356 362.718 358.841 363.123 361.681 363.123 C 365.253 363.123 368.499 362.799 371.583 362.068 C 382.298 359.553 389.44 352.329 389.44 339.423 C 389.44 329.927 382.135 325.301 374.83 322.054 C 370.042 319.864 362.656 317.834 362.656 313.127 C 362.656 309.231 365.741 307.039 369.555 307.039 C 373.207 307.039 377.346 308.662 379.781 312.153 C 380.106 312.558 380.675 312.721 381.16 312.396 L 392.199 304.686 C 392.524 304.442 392.687 303.874 392.443 303.469 C 390.008 299.004 384.651 295.351 378.483 293.647 Z M 423.773 293.647 L 408.27 293.647 C 407.865 293.647 407.458 293.891 407.296 294.377 L 393.904 360.85 C 393.904 360.932 393.904 361.013 393.904 361.094 C 393.904 361.662 394.392 362.068 394.878 362.068 L 410.379 362.068 C 410.867 362.068 411.192 361.825 411.354 361.338 L 424.746 294.703 L 424.746 294.621 C 424.746 294.377 424.665 294.133 424.422 293.891 C 424.26 293.728 424.016 293.647 423.773 293.647 Z M 478.314 293.647 C 475.392 292.916 472.389 292.51 469.386 292.592 C 465.815 292.592 462.406 292.998 459.241 293.647 C 439.518 297.95 427.506 314.75 427.506 332.85 C 427.506 348.515 436.19 358.822 448.851 361.988 C 451.773 362.718 454.777 363.123 457.861 363.042 C 461.676 363.042 465.166 362.718 468.331 361.988 C 478.152 359.796 485.376 354.114 492.03 344.78 C 492.193 344.537 492.193 344.293 492.112 344.049 C 492.03 343.807 491.869 343.563 491.625 343.482 L 479.369 337.395 C 479.207 337.313 479.126 337.313 478.963 337.313 C 478.639 337.313 478.396 337.476 478.233 337.718 C 473.2 344.78 467.358 348.757 459.322 348.757 C 450.068 348.757 445.037 342.508 445.037 335.446 L 445.037 333.337 L 495.035 333.337 C 495.196 333.337 495.44 333.255 495.521 333.174 C 495.765 333.093 495.926 332.85 495.926 332.606 C 496.414 330.902 497.713 325.95 497.713 320.026 C 497.713 307.364 491.057 296.894 478.314 293.647 Z M 448.365 320.026 C 451.287 312.964 458.348 307.039 467.114 307.039 C 475.961 307.039 480.019 311.502 480.587 320.026 L 448.365 320.026 Z M 554.284 308.906 C 554.446 308.988 554.689 309.068 554.851 309.068 C 555.015 309.068 555.258 308.988 555.338 308.906 C 555.501 308.825 555.663 308.662 555.745 308.419 L 560.857 295.271 C 560.939 295.189 560.939 295.027 560.939 294.865 C 560.939 294.459 560.696 294.133 560.29 293.972 L 559.316 293.647 C 557.124 292.916 555.258 292.592 552.011 292.592 C 549.414 292.592 546.897 292.916 544.462 293.647 C 539.269 295.189 534.318 298.436 529.854 303.874 L 531.719 294.865 C 531.719 294.784 531.719 294.703 531.719 294.621 C 531.719 294.377 531.639 294.133 531.396 293.891 C 531.233 293.728 530.989 293.566 530.666 293.647 L 515.162 293.647 C 514.676 293.647 514.27 293.972 514.188 294.459 L 501.04 360.932 C 501.04 361.013 501.04 361.013 501.04 361.094 C 501.04 361.257 501.04 361.338 501.121 361.5 C 501.284 361.825 501.608 362.068 502.015 362.068 L 517.516 362.068 C 517.679 362.068 517.923 361.988 518.003 361.906 C 518.246 361.744 518.409 361.581 518.49 361.338 L 523.279 337.8 C 527.5 316.211 539.511 307.688 548.278 307.688 C 550.631 307.606 552.66 308.094 554.284 308.906 Z M 419.146 267.026 C 413.384 267.026 409.162 271.245 409.162 276.684 C 409.162 282.122 413.384 286.342 419.146 286.342 C 424.908 286.342 429.129 282.122 429.129 276.684 C 429.129 271.245 424.908 267.026 419.146 267.026 Z M 555.177 344.049 C 549.414 344.049 545.193 348.271 545.193 353.708 C 545.193 357.28 547.06 360.364 549.982 362.068 C 551.442 362.88 553.228 363.367 555.095 363.367 C 557.043 363.367 558.747 362.88 560.208 362.068 C 563.212 360.364 565.078 357.199 564.997 353.708 C 565.16 348.271 560.939 344.049 555.177 344.049 Z" style="transform-origin: 321.589px 314.669px;"/>
</svg>