<?xml version="1.0" encoding="utf-8"?>
<!-- Generator: Adobe Illustrator 19.2.1, SVG Export Plug-In . SVG Version: 6.00 Build 0)  -->
<svg version="1.1" id="layer" xmlns="http://www.w3.org/2000/svg" xmlns:xlink="http://www.w3.org/1999/xlink" x="0px" y="0px"
	 viewBox="0 0 652 652" style="enable-background:new 0 0 652 652;" xml:space="preserve">
<path d="M132,296.1c-4-19.8-17.5-33.9-42.1-34.1h-1.1c-28,0.2-48.8,13.8-59.8,34.1c-5.9,10.8-9,23.5-9,37.1
	c0,26.1,15,42.6,34.1,47.2c3.7,0.9,7.5,1.3,11.3,1.3c4.6,0,8.7-0.4,12.5-1.3c8.1-1.9,14.3-5.8,19.2-11.5v10.4c0,0.1,0,0.3,0.1,0.4
	c0.2,0.4,0.6,0.7,1.1,0.7h16.5c0.2,0,0.4-0.1,0.6-0.2c0.3-0.2,0.5-0.4,0.6-0.8l11.4-56.6c0.1-0.4,0-0.8-0.2-1.1
	c-0.2-0.3-0.6-0.5-1-0.5H84.4c-0.6,0-1.1,0.4-1.2,1h0l-3.1,15.3c0,0.1,0,0.1,0,0.2c0,0.2,0,0.3,0.1,0.5c0.2,0.4,0.6,0.7,1.1,0.7h21
	c-4.5,12-15,22.6-31.6,22.6c-16.8,0-27.3-11.7-27.3-31.6c0-13,4.3-25.1,11.8-33.9c7.3-8.6,17.7-14,30-14c11.6,0,18.4,5.1,22.9,14
	c1.2,2.3,2.2,4.7,3,7.2c0.3,0.6,0.9,0.9,1.5,0.7l18.8-4.8c0.1,0,0.2-0.1,0.4-0.1c0.4-0.2,0.7-0.7,0.6-1.2L132,296.1L132,296.1z
	 M178,263.2c0-0.7-0.6-1.2-1.2-1.2l0,0h-19.1c-0.6,0-1.1,0.4-1.2,1l-6.6,33.1l-16.6,82.8c-0.1,0.2,0,0.5,0.1,0.7
	c0.2,0.5,0.7,0.8,1.2,0.7h19.1c0.2,0,0.5-0.1,0.6-0.2c0.3-0.1,0.5-0.4,0.6-0.7l16.7-83.4l6.5-32.7C178,263.3,178,263.3,178,263.2z
	 M237.6,296.1c-3.7-0.9-7.5-1.4-11.3-1.3c-5,0-9.4,0.4-13.6,1.3c-8.1,1.8-14.9,5.5-22,12c-10.4,9.7-14.9,22.1-14.9,38
	c0,16.5,9.8,30.1,26.7,34.3c3.7,0.9,7.5,1.4,11.3,1.3c5,0,9.5-0.4,13.6-1.3c8.1-1.8,14.9-5.5,22-12c10.4-9.7,14.9-22.1,14.9-38
	C264.3,313.9,254.4,300.3,237.6,296.1L237.6,296.1z M234.9,355c-4.5,5.7-10.7,9-19.2,9c-10.2,0-16.9-8-16.9-21.1
	c0-9,2.1-16,6.4-21.4c4.5-5.7,10.7-9,19.2-9c10.2,0,16.9,8,16.9,21.1C241.3,342.6,239.2,349.6,234.9,355L234.9,355z M335.9,308.2
	L335.9,308.2c-2.9-5.5-9.5-10-17.1-12.1c-3.1-0.9-6.3-1.3-9.6-1.3c-3.7,0-7.5,0.4-11.1,1.3c-12.2,3.2-19.3,11.9-19.3,24.4
	c0,11.2,7.6,17.7,17.8,22.4c9.8,4.5,14.9,7.5,14.9,12.4c0,6-5.2,8.7-11.1,8.7c-8.2,0-14.1-4.9-16.6-13.1c-0.1-0.3-0.4-0.6-0.7-0.7
	c-0.3-0.1-0.7-0.1-1,0l-16.1,6.4v0c-0.5,0.2-0.8,0.6-0.8,1.1c0,0.1,0,0.1,0,0.2c2.8,11,11.3,19.6,22.3,22.5
	c3.4,0.9,6.9,1.4,10.3,1.4c4.1,0,8.2-0.4,12.2-1.4c13.2-3.1,22-12,22-27.9c0-11.7-9-17.4-18-21.4c-5.9-2.7-15-5.2-15-11
	c0-4.8,3.8-7.5,8.5-7.5c4.5,0,9.6,2,12.7,6.4c0.2,0.3,0.6,0.5,1,0.5c0.2,0,0.5-0.1,0.6-0.2h0l13.4-9.4v0l0.1-0.1l0,0
	C336,309.4,336.2,308.8,335.9,308.2L335.9,308.2z M390,296.1c-3.1-0.9-6.3-1.3-9.6-1.3c-4,0-7.7,0.5-11.1,1.3
	c-12.2,3.2-19.3,11.9-19.3,24.4c0,11.2,7.6,17.7,17.8,22.4c9.9,4.5,14.9,7.5,14.9,12.4c0,6-5.2,8.7-11.1,8.7
	c-8.2,0-14.1-4.9-16.6-13.2c-0.3-0.6-1-0.9-1.6-0.6l-16,6.4v0c-0.5,0.2-0.8,0.6-0.8,1.1c0,0.1,0,0.1,0,0.2
	c2.8,10.9,11.3,19.5,22.3,22.4c3.4,0.9,6.9,1.4,10.4,1.4c4.4,0,8.4-0.4,12.2-1.3c13.2-3.1,22-12,22-27.9c0-11.7-9-17.4-18-21.4
	c-5.9-2.7-15-5.2-15-11c0-4.8,3.8-7.5,8.5-7.5c4.5,0,9.6,2,12.6,6.3c0.4,0.5,1.1,0.7,1.7,0.3l13.6-9.5c0.4-0.3,0.6-1,0.3-1.5
	C404.2,302.7,397.6,298.2,390,296.1L390,296.1z M445.8,296.1h-19.1c-0.5,0-1,0.3-1.2,0.9l-16.5,81.9v0c0,0.1,0,0.2,0,0.3
	c0,0.7,0.6,1.2,1.2,1.2h19.1c0.6,0,1-0.3,1.2-0.9l16.5-82.1v-0.1c0-0.3-0.1-0.6-0.4-0.9C446.4,296.2,446.1,296.1,445.8,296.1
	L445.8,296.1z M513,296.1c-3.6-0.9-7.3-1.4-11-1.3c-4.4,0-8.6,0.5-12.5,1.3c-24.3,5.3-39.1,26-39.1,48.3c0,19.3,10.7,32,26.3,35.9
	c3.6,0.9,7.3,1.4,11.1,1.3c4.7,0,9-0.4,12.9-1.3c12.1-2.7,21-9.7,29.2-21.2c0.2-0.3,0.2-0.6,0.1-0.9c-0.1-0.3-0.3-0.6-0.6-0.7
	l-15.1-7.5c-0.2-0.1-0.3-0.1-0.5-0.1c-0.4,0-0.7,0.2-0.9,0.5c-6.2,8.7-13.4,13.6-23.3,13.6c-11.4,0-17.6-7.7-17.6-16.4V345h61.6l0,0
	c0.2,0,0.5-0.1,0.6-0.2c0.3-0.1,0.5-0.4,0.5-0.7h0c0.6-2.1,2.2-8.2,2.2-15.5C536.9,313,528.7,300.1,513,296.1L513,296.1z
	 M476.1,328.6c3.6-8.7,12.3-16,23.1-16c10.9,0,15.9,5.5,16.6,16H476.1z M606.6,314.9L606.6,314.9c0.2,0.1,0.5,0.2,0.7,0.2
	c0.2,0,0.5-0.1,0.6-0.2c0.2-0.1,0.4-0.3,0.5-0.6l6.3-16.2c0.1-0.1,0.1-0.3,0.1-0.5c0-0.5-0.3-0.9-0.8-1.1l-1.2-0.4
	c-2.7-0.9-5-1.3-9-1.3c-3.2,0-6.3,0.4-9.3,1.3c-6.4,1.9-12.5,5.9-18,12.6l2.3-11.1c0-0.1,0-0.2,0-0.3c0-0.3-0.1-0.6-0.4-0.9
	c-0.2-0.2-0.5-0.4-0.9-0.3h-19.1c-0.6,0-1.1,0.4-1.2,1v0L541,379c0,0.1,0,0.1,0,0.2c0,0.2,0,0.3,0.1,0.5c0.2,0.4,0.6,0.7,1.1,0.7
	h19.1c0.2,0,0.5-0.1,0.6-0.2c0.3-0.2,0.5-0.4,0.6-0.7l5.9-29c5.2-26.6,20-37.1,30.8-37.1C602.1,313.3,604.6,313.9,606.6,314.9
	L606.6,314.9z M440.1,263.3c-7.1,0-12.3,5.2-12.3,11.9c0,6.7,5.2,11.9,12.3,11.9c7.1,0,12.3-5.2,12.3-11.9
	C452.4,268.5,447.2,263.3,440.1,263.3L440.1,263.3z M607.7,358.2c-7.1,0-12.3,5.2-12.3,11.9c0,4.4,2.3,8.2,5.9,10.3
	c1.8,1,4,1.6,6.3,1.6c2.4,0,4.5-0.6,6.3-1.6c3.7-2.1,6-6,5.9-10.3C620,363.4,614.8,358.2,607.7,358.2z"/>
</svg>
