<svg xmlns="http://www.w3.org/2000/svg" viewBox="0 50 100 80">
  <defs>
    <style>
      .cls-1,.cls-2,.cls-3,.cls-4,.cls-5{fill-rule:evenodd;}.cls-2{fill:#b9ce95;}.cls-3{fill:#a8b1ad;}.cls-4{fill:#788681;}.cls-5{fill:#61726c;}.cls-6{fill:none;stroke:#183029;stroke-miterlimit:10;stroke-width:2.9px;}.cls-7{fill:#183029;}.cls-8{fill:#f4f4f4;}.cls-9{fill:#ff6b00;}
    </style>
  </defs>
  <desc>Walden Local Logo</desc>
  <g id="Layer_2" data-name="Layer 2">
    <g id="WL_full_logo" data-name="WL full logo">
      <path class="cls-8" d="M67,85.18a22.57,22.57,0,0,0,0,3.12c.27,1.86,1.78,2.42,3.38,1.44a13,13,0,0,0,4.21-4.48q1.43-2.31,3-4.54a8.71,8.71,0,0,1,1.58-1.64c.75-.62,1.54-.44,1.7.51A24,24,0,0,1,81.16,84c0,1.32-.31,2.62-.45,3.94a3.33,3.33,0,0,0,.22.87c.77-.91,1.48-1.67,2.11-2.49,1.06-1.39,2-2.85,3.14-4.19a2.92,2.92,0,0,1,1.59-.9,1.13,1.13,0,0,1,1.5,1c.06,1.52,0,3,0,4.56,0,.73-.1,1.46-.11,2.18s0,1.3.72,1.61a1.85,1.85,0,0,0,2-.39c.38-.32.72-.7,1.11-1a1.61,1.61,0,0,1,.61-.15c0,.23.17.51.09.7a5.81,5.81,0,0,1-2.9,3.31,4.57,4.57,0,0,1-1,.44c-1.81.39-2.82-.3-3-2.18a28.25,28.25,0,0,1,.21-3.19c0-.94,0-1.88,0-2.87-.53-.18-.92,0-1.3.63-1.08,1.72-2.22,3.42-3.42,5.06a9.22,9.22,0,0,1-1.77,1.7c-.56.44-2.09-.42-2.12-1.28a43.14,43.14,0,0,1,.14-4.74c.09-1.17.34-2.33.52-3.5l-.4-.21c-.57.74-1.15,1.47-1.7,2.24-1,1.38-2,2.76-2.92,4.18a7.69,7.69,0,0,1-5,3.19,3.8,3.8,0,0,1-5-3.35c0-.21-.08-.43-.13-.7-.76.83-1.41,1.63-2.16,2.33a4.62,4.62,0,0,1-3.41,1.2c-.52,0-1.12-.7-1.49-1.22-.65-.93-1.14-2-1.75-3a7.63,7.63,0,0,1-.58,1C53.74,90,53,91.35,51.88,92.13c-2,1.38-2.78,1-3.82-1a25.69,25.69,0,0,1-2.52,2,11.41,11.41,0,0,1-2.89,1.29c-1.36.37-2.45-.72-3.15-1.95a8.59,8.59,0,0,1-.83-4.53c0-1.12,0-2.24,0-3.4a2.9,2.9,0,0,0-.35.52c-.49,1.15-.88,2.35-1.47,3.45a7.62,7.62,0,0,1-3.61,3.65,2.13,2.13,0,0,1-2.46-.77c-.55-1-1-2.11-1.51-3.24-.44.63-1,1.35-1.49,2.12a2.6,2.6,0,0,1-3.28,1.28c-.17-.06-.3-.34-.38-.54a7.05,7.05,0,0,1,.07-5.48,22,22,0,0,1,2-4.25c1-1.44,2-2.92,4.06-3.16A1.45,1.45,0,0,1,32,79.12c.3.9.58,1.84-.26,2.71A1.74,1.74,0,0,0,31.5,83a37.11,37.11,0,0,0,.35,4.64,2,2,0,0,0,1.33,1.24c.37.06,1-.63,1.3-1.11.77-1.14,1.42-2.36,2.14-3.53a2.47,2.47,0,0,1,.53-.52,8.09,8.09,0,0,1,.24-1.53,60.26,60.26,0,0,0,3.28-10.62,4,4,0,0,1,.88-1.85,1.51,1.51,0,0,1,1.36-.41,1.54,1.54,0,0,1,.52,1.32c-.36,2.39-.83,4.76-1.26,7.13a.38.38,0,0,1,0,.1c-1,2.17-.51,4.55-.82,6.81a18.37,18.37,0,0,0,.32,5.1c.25,1.7,1.36,2.25,2.79,1.4,1.77-1.05,3.37-2.19,3.65-4.63a10.52,10.52,0,0,1,2.32-5.38c1-1.26,2.18-2.55,3.77-2.45,2.34.15,1.82-1.55,2.1-2.67.54-2.21.91-4.47,1.39-6.7a1.9,1.9,0,0,1,1.68-1.58c.75-.1,1.17.23,1,1-.55,2.22-1.19,4.42-1.64,6.65-.4,2-.61,4-.9,6,0,.07,0,.14,0,.2-.88,1.79.23,3.54.11,5.31a1.68,1.68,0,0,0,.3.83c.76,1.36,1.36,1.72,2.83.78,1.73-1.09,2.63-2.93,3.57-4.68.66-1.22,1.16-2.53,1.88-3.71A4.89,4.89,0,0,1,69.8,78c2.27-.46,3,1.62,2.7,3.08A4.57,4.57,0,0,1,68,85C67.75,85.06,67.46,85.12,67,85.18ZM55.52,81c-1.22.13-2.25.24-2.94,1.2a10.07,10.07,0,0,0-2.15,6.59c0,.27.25.72.41.73a1.21,1.21,0,0,0,1-.34c.94-1.61,1.86-3.24,2.65-4.92A26.42,26.42,0,0,0,55.52,81ZM26,88.39c1.31-.39,3.78-6,3.42-7.66C28.16,81.19,25.85,86.3,26,88.39ZM68,82.95c1-.16,2-.21,2.35-1.41.08-.29.1-.8,0-.89a1.35,1.35,0,0,0-1-.09A2.57,2.57,0,0,0,68,82.95Z"/>
      <path class="cls-8" d="M17.58,89c.26-1.62.56-3.23.78-4.85.43-3.15.81-6.32,1.27-9.46a1.77,1.77,0,0,1,.78-1.11c.34-.2,1.07-.25,1.26,0A2,2,0,0,1,22,75c-.52,3.77-1,7.55-1.7,11.3a36.91,36.91,0,0,1-1.66,6.09c-.55,1.51-1.79,1.58-2.6.16a14.87,14.87,0,0,1-1.35-3.67c-.42-1.64-.66-3.33-1-5a6.45,6.45,0,0,0-.35-.88c-.26.65-.45,1.08-.62,1.53-1,2.88-2.07,5.78-3.16,8.65a3.73,3.73,0,0,1-1,1.28c-1,.89-2,.57-2.23-.86A21.87,21.87,0,0,1,6.1,89.9C6,86.06,6,82.22,5.94,78.39c0-1.46-.18-2.92-.35-4.37-.1-.83.16-1.43,1-1.6A1.19,1.19,0,0,1,8,73.51c.19,1.48.3,3,.35,4.46.08,2.31.09,4.63.12,6.94a28,28,0,0,0,.23,4.2c.42-1,.92-2.06,1.25-3.13.9-2.9,1.69-5.84,2.6-8.73a1.36,1.36,0,0,1,1-.79,1.66,1.66,0,0,1,1.14.83,8.36,8.36,0,0,1,.54,2.11c.55,3,1.08,6,1.64,9a2.26,2.26,0,0,0,.36.63Z"/>
      <path class="cls-9" d="M53.55,105.32h3V107H51.4V97.26h2.15Z"/>
      <path class="cls-9" d="M62.21,107.23c-3.37,0-5.46-2.27-5.46-5.13S58.91,97,62.21,97s5.46,2.21,5.46,5.1S65.57,107.23,62.21,107.23Zm0-8.36A3.25,3.25,0,1,0,65.44,102,3.14,3.14,0,0,0,62.21,98.87Z"/>
      <path class="cls-9" d="M76.38,99.84a3.36,3.36,0,0,0-2.43-1,3.31,3.31,0,0,0,0,6.62,3.56,3.56,0,0,0,2.44-1v2.25a6.42,6.42,0,0,1-2.5.58,5.12,5.12,0,1,1,0-10.23,5.69,5.69,0,0,1,2.46.57Z"/>
      <path class="cls-9" d="M80.05,104.92l-.91,2H76.87l4.3-10h1.67L87,107h-2.3l-.85-2Zm1.86-5.07h0l-1.21,3.53h2.62Z"/>
      <path class="cls-9" d="M89.84,105.32h3V107h-5.2V97.26h2.15Z"/>
    </g>
  </g>
</svg>
